<svg id="Layer_1" data-name="Layer 1" xmlns="http://www.w3.org/2000/svg" viewBox="0 0 553 300"><defs><style>.cls-1{fill:#2f93e0;}.cls-2{fill:#0f2535;}.cls-3{fill:#fff;}.cls-4{fill:#666;}</style></defs><title>webimage-devops</title><path class="cls-1" d="M35.31,83.6a1.82,1.82,0,0,1-2.32,1L25.45,81.7a1.76,1.76,0,0,0-2,.33A1.72,1.72,0,0,0,23,83.94L37.4,120.26a1.79,1.79,0,0,0,.94,1,1.75,1.75,0,0,0,1.35,0L76,106.9a1.75,1.75,0,0,0,0-3.25l-6.74-2.83a1.83,1.83,0,0,1-1-2.41l0,0-.06,0,.15-.14a1.87,1.87,0,0,1,.74-.71C76.81,90.26,87.47,85.28,100.49,83c4.68-.84,11.15-.33,17.25,1.08l-4.92-19.61a5.59,5.59,0,0,1,4.05-6.78l26.74-6.71c-28.56-8.89-53.45-8.39-74,1.53C56,59,44.55,69.45,35.35,83.62Z"/><path class="cls-1" d="M54.29,195.41l0,0a1.85,1.85,0,0,1,.68,2.51l-4.32,7.5a1.52,1.52,0,0,0,.11,1.73,1.54,1.54,0,0,0,1.64.55l35.63-9.51a1.53,1.53,0,0,0,1-.72,1.59,1.59,0,0,0,.16-1.19l-9.5-35.59a1.56,1.56,0,0,0-2.86-.37l-3,4.9a1.83,1.83,0,0,1-2.48.63l0,.06-.18-.21a1.89,1.89,0,0,1-.48-.58,53.17,53.17,0,0,1-6.87-11.33c-4.33-9.4-6.76-20-6.5-28.3a67.12,67.12,0,0,1,.6-7.5L41,124.66a5.35,5.35,0,0,1-2,.39,5.43,5.43,0,0,1-5-3.44L25.9,101.15c-3.29,7.52-6.09,16.45-6.39,26-.76,24.43,12.78,51.12,34.49,68Z"/><path class="cls-1" d="M164.66,188.8a1.83,1.83,0,0,1,2.55.3l5.85,7.3a1.83,1.83,0,0,0,2,.64,1.85,1.85,0,0,0,1.37-1.61L181,155.06a1.91,1.91,0,0,0-1.68-2.11L139,148.36a1.91,1.91,0,0,0-1.7,3.09l6.24,7.06a1.84,1.84,0,0,1-.16,2.59l-.1.07,0,.05c-23.56,15.84-38.74,15.35-53.48,14.86L88,176h-.41l5.16,19.36a5.21,5.21,0,0,1-3.7,6.4l-21.6,5.76a23.55,23.55,0,0,0,5.22,1.74,105,105,0,0,0,29.55,4.43c22.85,0,43.95-8.4,62.46-24.92Z"/><path class="cls-1" d="M225.58,156.28a5.58,5.58,0,0,1,5.49-5.66l25.2-.4c-8.47-8.26-28.64-27.75-45.6-43-19.3-17.38-48-38.93-55.17-43.88l0,0-.11-.06a1.83,1.83,0,0,1-.49-2.55l4.46-6.6a1.84,1.84,0,0,0-.15-2,1.88,1.88,0,0,0-2-.72l-39.45,9.9a1.91,1.91,0,0,0-1.39,2.33l9.91,39.5a1.91,1.91,0,0,0,3.5.52l4-6.59a1.82,1.82,0,0,1,2.49-.63l0-.07c8,7.42,32.9,30.59,40.19,37.83,11,11,38.47,37.43,49.52,48.07Z"/><path class="cls-1" d="M326.18,226.89a7.13,7.13,0,0,1,2.13-9.79l15.08-9.44c-28.9-10.56-57.47-27.28-76.86-41l.2-.2a1.83,1.83,0,0,1-.06-2.53l6.45-7a1.9,1.9,0,0,0-1.37-3.26l-40.63.64a1.89,1.89,0,0,0-1.87,1.93l.64,40.58a1.9,1.9,0,0,0,3.27,1.3l6.42-7.14a1.83,1.83,0,0,1,2.59-.14l.07.07h0c9.07,8.16,22,18.28,40.18,29.86,14.85,9.45,37.14,18.86,54.38,25.47Z"/><path class="cls-2" d="M520.13,125.39,496.8,152a7.13,7.13,0,0,1-4.93,2.42l-.48,0a7.12,7.12,0,0,1-4.72-1.79l-19.55-17.15c-.44,6.56-1.88,15-5.49,27.21-5,17-14.21,30.39-26.55,38.7-14.58,9.81-33.39,12.64-55.89,8.45l0-.14h0a1.83,1.83,0,0,1-1.37-2.2l2.75-11.87A3.45,3.45,0,0,0,375.3,192l-45,28.16a3.44,3.44,0,0,0-1,4.76.75.75,0,0,0,.07.12l28.14,51.19a3.46,3.46,0,0,0,6.24-1.21l2.63-12.66a1.83,1.83,0,0,1,2.85-1.12,156.25,156.25,0,0,0,27.62,2.52c33.15,0,63.53-11.15,86.15-32.2C510.11,206.36,523.1,168.92,520.13,125.39Z"/><path class="cls-2" d="M312.11,87a1.83,1.83,0,0,1,2.39,1l4.6,11.38a3,3,0,0,0,2.95,1.75,3,3,0,0,0,2.83-2.06l18.44-49.64a3.16,3.16,0,0,0-1.87-4.05L293.6,29a3.15,3.15,0,0,0-4,4.25l5.61,10.82a1.83,1.83,0,0,1-.78,2.47l-.11,0,.08.19c-6.38,3.54-12.53,7.56-18.94,11.75-2.75,1.8-5.57,3.64-8.53,5.53-39.34,25.09-73.64,51.4-73.92,51.63-9.32,7.41-31.95,26-37.81,30.83l24.56,2.79a5.6,5.6,0,0,1,4.92,6.17l-2.77,24.33c7.29-5.8,38.89-30.92,50.75-40.24,11.4-8.94,40.37-29.56,56.7-40a200.25,200.25,0,0,1,22-12A1.8,1.8,0,0,1,312.11,87Z"/><path class="cls-2" d="M337.33,76.11c30.43-11.86,49-11.3,57.5-11h.2c29.4.92,53.35,18,64.83,38l-.67,0s0,0,0,0a1.85,1.85,0,0,1-1.76,1.92l-9.86.43a3.51,3.51,0,0,0-2.06,6.14l43.57,38.25a3.52,3.52,0,0,0,2.54.86,3.48,3.48,0,0,0,2.41-1.19l38.29-43.61a3.51,3.51,0,0,0-2.86-5.82l-14.23,1.27a1.84,1.84,0,0,1-2-1.67,1.7,1.7,0,0,1,.06-.6c-6.69-18.9-24.21-55-64.11-72.42C414.4,11.5,371.34,14.15,321,34.51l21.67,7.43a6.85,6.85,0,0,1,4.08,8.78Z"/><path class="cls-1" d="M207,134.22c.42-1.32.66-3.18-.7-4a9,9,0,0,1-2.1-1.42,5.38,5.38,0,0,1-1.15-1.92,5.62,5.62,0,0,1,3.28-7,5,5,0,0,1,6.63,2.86c.49,1.57,1,2.65,2.83,2.68.5,0,1.51-.2,1.86.24s-1.23.81-1.43.81c.35.14,3,.45,2.16,1.3s-2.44.22-3.35.13c-1.52-.15.15,1.59.46,2,.49.61,1.07,2.19-.36,2-1.17-.14-1.79-1.39-2.83-1.76s-.63,1.86-.59,2.32.23,3-.91,2.53c-.92-.38-1.23-1.93-1.46-2.79.09.31-.37,1.25-.5,1.53a3.62,3.62,0,0,1-1.23,1.6c-1.2.85-.83-.46-.61-1.13C207,134,206.88,134.43,207,134.22Z"/><path class="cls-1" d="M385.1,43.07c1.25-.59,2.77-1.69,2.46-3.26a8.9,8.9,0,0,1-.41-2.5,5.32,5.32,0,0,1,.62-2.16,5.62,5.62,0,0,1,7.31-2.36,5,5,0,0,1,2.45,6.8c-.81,1.43-1.24,2.55,0,3.9.33.37,1.17,1,1.1,1.52-.11.74-1.43-.34-1.58-.49.14.34,1.72,2.48.54,2.46s-1.83-1.63-2.39-2.35c-.94-1.22-1.06,1.19-1.13,1.68-.11.77-.86,2.27-1.71,1.12-.7-1-.22-2.26-.66-3.27s-1.78.81-2.09,1.16-2,2.23-2.47,1.07c-.35-.94.57-2.23,1-3-.17.28-1.17.58-1.46.68a3.65,3.65,0,0,1-2,.2c-1.44-.29-.23-.92.41-1.22Z"/><path class="cls-3" d="M222.66,118.52l3.67,4.92-2,1.47-8.83-11.85,4.38-3.27a5.87,5.87,0,0,1,3.73-1.39,3.9,3.9,0,0,1,3,1.75,3.25,3.25,0,0,1,.7,1.94,4,4,0,0,1-.59,2.1,3.07,3.07,0,0,1,2.21,0,4.14,4.14,0,0,1,1.76,1.44l.74,1a5.16,5.16,0,0,0,.89.92,1.83,1.83,0,0,0,1,.43l.14.19-2,1.51a1.65,1.65,0,0,1-1.06-.53,8.31,8.31,0,0,1-.93-1.06l-.71-1a2.54,2.54,0,0,0-1.6-1.06,2.39,2.39,0,0,0-1.84.53Zm-1.18-1.59,2.3-1.71a3.35,3.35,0,0,0,1.39-1.75,2.15,2.15,0,0,0-.49-1.8,2.31,2.31,0,0,0-1.59-1,2.85,2.85,0,0,0-2,.71l-2.4,1.79Z"/><path class="cls-3" d="M239.08,114.4a4.82,4.82,0,0,1-3.92.92,5.67,5.67,0,0,1-3.41-2.39l-.23-.33a5.81,5.81,0,0,1-1.19-4,4.36,4.36,0,0,1,1.89-3.28,4.31,4.31,0,0,1,3.56-.88,5.27,5.27,0,0,1,3.06,2.25l.84,1.18-5.58,4v.06a3.47,3.47,0,0,0,1.87,1.29,2.46,2.46,0,0,0,2.07-.46,5.32,5.32,0,0,0,1.25-1.19,5.55,5.55,0,0,0,.71-1.37l1.58.86a5,5,0,0,1-.8,1.71A6.87,6.87,0,0,1,239.08,114.4Zm-5.71-7.51a1.89,1.89,0,0,0-.8,1.47,3.51,3.51,0,0,0,.48,1.92l0,0,3.55-2.53-.15-.2a2.6,2.6,0,0,0-1.42-1.08A2,2,0,0,0,233.37,106.89Z"/><path class="cls-3" d="M246.23,109.08l-2,1.42-9.1-13,2-1.42Z"/><path class="cls-3" d="M252.46,105a4.85,4.85,0,0,1-3.93.87,5.66,5.66,0,0,1-3.37-2.44l-.23-.33a5.75,5.75,0,0,1-1.14-4,4.77,4.77,0,0,1,5.5-4.1,5.3,5.3,0,0,1,3,2.3l.83,1.19-5.63,3.91v.05a3.49,3.49,0,0,0,1.85,1.32,2.44,2.44,0,0,0,2.08-.44,5.33,5.33,0,0,0,1.26-1.17,5.53,5.53,0,0,0,.73-1.36l1.57.88a5,5,0,0,1-.82,1.7A7,7,0,0,1,252.46,105Zm-5.61-7.58a1.86,1.86,0,0,0-.82,1.45,3.69,3.69,0,0,0,.45,1.93l.05,0,3.58-2.48-.15-.21a2.6,2.6,0,0,0-1.41-1.1A2,2,0,0,0,246.85,97.42Z"/><path class="cls-3" d="M262.94,97.53c-.23-.18-.44-.37-.64-.55a5,5,0,0,1-.54-.59,4.49,4.49,0,0,1-.37,1.82,3.35,3.35,0,0,1-1.24,1.48,3.62,3.62,0,0,1-2.67.76A3.19,3.19,0,0,1,255.35,99a2.86,2.86,0,0,1-.36-2.76,6,6,0,0,1,2.42-2.74L259,92.39l-.54-.8a1.77,1.77,0,0,0-1.19-.82,2,2,0,0,0-1.47.42,2,2,0,0,0-.88,1.09,1.29,1.29,0,0,0,.18,1.14l-2,1.34,0,0a2.72,2.72,0,0,1-.34-2.56,4.93,4.93,0,0,1,2.08-2.65,4.73,4.73,0,0,1,3.11-.94,3.42,3.42,0,0,1,2.55,1.65l2.76,4a9.37,9.37,0,0,0,.82,1,6.19,6.19,0,0,0,.93.84Zm-3.5.25a3.11,3.11,0,0,0,1.13-1.34,2.39,2.39,0,0,0,.21-1.44l-.92-1.34-1.61,1.11a2.44,2.44,0,0,0-1.09,1.39,1.6,1.6,0,0,0,.2,1.38,1.25,1.25,0,0,0,.91.59A1.71,1.71,0,0,0,259.44,97.78Z"/><path class="cls-3" d="M270.25,89a1.11,1.11,0,0,0-.93-.51,4.74,4.74,0,0,0-1.87.47,7.78,7.78,0,0,1-3.14.69,2.49,2.49,0,0,1-2-1.17,3,3,0,0,1-.35-2.61,4.64,4.64,0,0,1,2-2.52,4.75,4.75,0,0,1,3.2-1,2.92,2.92,0,0,1,2.31,1.4l0,.06-2,1.32a1.59,1.59,0,0,0-1.08-.68,2.45,2.45,0,0,0-2.36,1.49,1.25,1.25,0,0,0,.16,1.07,1.1,1.1,0,0,0,.88.52A4.76,4.76,0,0,0,267,87a7.6,7.6,0,0,1,3.22-.73,2.55,2.55,0,0,1,2,1.2,2.89,2.89,0,0,1,.33,2.68,5.27,5.27,0,0,1-2.15,2.57,4.88,4.88,0,0,1-3.42,1,3.07,3.07,0,0,1-2.38-1.43l0-.06,1.9-1.28a1.63,1.63,0,0,0,1.35.76,2.75,2.75,0,0,0,1.56-.52,2.53,2.53,0,0,0,1-1.13A1.17,1.17,0,0,0,270.25,89Z"/><path class="cls-3" d="M279.8,86.42a4.82,4.82,0,0,1-3.95.79,5.63,5.63,0,0,1-3.32-2.51l-.23-.33a5.87,5.87,0,0,1-1.05-4.08,4.36,4.36,0,0,1,2-3.21,4.3,4.3,0,0,1,3.58-.77,5.28,5.28,0,0,1,3,2.36l.8,1.21-5.71,3.79v0a3.51,3.51,0,0,0,1.82,1.36,2.43,2.43,0,0,0,2.09-.39,5.48,5.48,0,0,0,1.29-1.15,6,6,0,0,0,.75-1.34l1.56.91a5.16,5.16,0,0,1-.86,1.68A6.85,6.85,0,0,1,279.8,86.42Zm-5.45-7.69a1.84,1.84,0,0,0-.85,1.43,3.57,3.57,0,0,0,.41,1.94l0,0,3.63-2.41-.14-.21a2.6,2.6,0,0,0-1.39-1.12A1.92,1.92,0,0,0,274.35,78.73Z"/><path class="cls-3" d="M402.79,48.53l2-14.65,4.74.66a6.16,6.16,0,0,1,4.29,2.36A6.06,6.06,0,0,1,415,41.62l-.3,2.22a6.09,6.09,0,0,1-2.36,4.24,6.27,6.27,0,0,1-4.77,1.11ZM407,36.18,405.5,46.91l2.24.3a3.61,3.61,0,0,0,3-.79,4.51,4.51,0,0,0,1.46-2.92l.31-2.24a4.47,4.47,0,0,0-.62-3.19,3.62,3.62,0,0,0-2.7-1.58Z"/><path class="cls-3" d="M420,52a4.74,4.74,0,0,1-3.19-2.45,5.64,5.64,0,0,1-.31-4.15l.11-.39A5.81,5.81,0,0,1,419,41.49a4.78,4.78,0,0,1,6.67,1.59,5.3,5.3,0,0,1,.19,3.8l-.38,1.4-6.62-1.81,0,.05a3.43,3.43,0,0,0,.18,2.26,2.41,2.41,0,0,0,1.67,1.31,5.16,5.16,0,0,0,1.7.22A5.82,5.82,0,0,0,423.9,50l.34,1.77a5,5,0,0,1-1.83.46A6.59,6.59,0,0,1,420,52Zm2.2-9.16a1.86,1.86,0,0,0-1.64.3,3.71,3.71,0,0,0-1.19,1.59v.05l4.2,1.15.07-.25a2.62,2.62,0,0,0-.07-1.78A1.92,1.92,0,0,0,422.22,42.8Z"/><path class="cls-3" d="M436.56,52.24a6.24,6.24,0,0,1-2.49,3.17,3.73,3.73,0,0,1-3.46.19,3.88,3.88,0,0,1-1.41-.92,3.27,3.27,0,0,1-.78-1.38l-2,5-2.29-.92,5.67-14.12,1.93.78-.29,1.37a3.81,3.81,0,0,1,1.62-.62,3.71,3.71,0,0,1,1.76.27,3.66,3.66,0,0,1,2.34,2.67,7.26,7.26,0,0,1-.53,4.36Zm-2.2-1.12a5.39,5.39,0,0,0,.44-2.79,2.07,2.07,0,0,0-1.36-1.7,2.49,2.49,0,0,0-1.34-.18A2.3,2.3,0,0,0,431,47l-1.85,4.6a2.24,2.24,0,0,0,.47,1.14,2.6,2.6,0,0,0,1.12.79,2.12,2.12,0,0,0,2.09-.16,4.33,4.33,0,0,0,1.49-2Z"/><path class="cls-3" d="M438.62,59.09,436.41,58l7.14-14.14L445.76,45Z"/><path class="cls-3" d="M443.39,55.17a6,6,0,0,1,3.26-2.72,5.14,5.14,0,0,1,6.29,3.88,6,6,0,0,1-1,4.13l-.11.19a6,6,0,0,1-3.27,2.73,5.18,5.18,0,0,1-6.29-3.9,6,6,0,0,1,1-4.13Zm2,1.47a4.93,4.93,0,0,0-.84,2.56,2.39,2.39,0,0,0,3.31,2,4.8,4.8,0,0,0,1.92-1.89l.11-.18a4.75,4.75,0,0,0,.81-2.54,2.35,2.35,0,0,0-3.3-2,4.75,4.75,0,0,0-1.89,1.87Z"/><path class="cls-3" d="M455.89,65l-.48,1,0,0,6.62-4.56,2.13,1.66-11.38,7.16a5.65,5.65,0,0,1-2.17.79,3,3,0,0,1-2.27-.75,3.3,3.3,0,0,1-.48-.45,5.37,5.37,0,0,1-.44-.53L448.86,68l.27.26.28.24a1.4,1.4,0,0,0,1.13.3,4.09,4.09,0,0,0,1.16-.43l.94-.53,3.54-11,2.12,1.66Z"/><path class="cls-3" d="M433.85,232.87a6.22,6.22,0,0,1-.07,4.8,5.78,5.78,0,0,1-3.54,3.18,5.61,5.61,0,0,1-4.67-.21,6.3,6.3,0,0,1-3.09-3.66l-.9-2.5a6.27,6.27,0,0,1,0-4.78,5.61,5.61,0,0,1,3.44-3.15,5.81,5.81,0,0,1,4.77.18,6.25,6.25,0,0,1,3.13,3.64Zm-3.22-1.69a4.59,4.59,0,0,0-2-2.51,3.31,3.31,0,0,0-2.92-.21,3.13,3.13,0,0,0-2,2,4.75,4.75,0,0,0,.15,3.18l.91,2.52a4.81,4.81,0,0,0,1.93,2.56,3.12,3.12,0,0,0,2.83.24,3.26,3.26,0,0,0,2.11-2,4.59,4.59,0,0,0-.12-3.21Z"/><path class="cls-3" d="M445.32,228.1a6.21,6.21,0,0,1,.77,4A3.72,3.72,0,0,1,444,234.8a3.84,3.84,0,0,1-1.63.46,3.36,3.36,0,0,1-1.55-.3l2.44,4.73-2.19,1.14-7-13.53,1.85-1,.85,1.12a3.51,3.51,0,0,1,.59-1.63,3.59,3.59,0,0,1,1.35-1.16,3.65,3.65,0,0,1,3.55,0,7.22,7.22,0,0,1,3,3.25ZM443,229a5.35,5.35,0,0,0-1.82-2.15,2.09,2.09,0,0,0-2.18-.09,2.55,2.55,0,0,0-1,.9,2.48,2.48,0,0,0-.35,1.21l2.28,4.4a2.25,2.25,0,0,0,1.17.4,2.58,2.58,0,0,0,1.33-.34,2.09,2.09,0,0,0,1.24-1.69,4.27,4.27,0,0,0-.56-2.45Z"/><path class="cls-3" d="M454.43,228.55a4.77,4.77,0,0,1-3.94.8,5.64,5.64,0,0,1-3.33-2.49l-.23-.34a5.81,5.81,0,0,1-1.06-4.07,4.77,4.77,0,0,1,5.58-4,5.26,5.26,0,0,1,3,2.34l.81,1.21-5.7,3.8v.06a3.47,3.47,0,0,0,1.83,1.35,2.39,2.39,0,0,0,2.08-.4,5,5,0,0,0,1.28-1.15,5.3,5.3,0,0,0,.76-1.34l1.55.91a5.12,5.12,0,0,1-.85,1.68A6.68,6.68,0,0,1,454.43,228.55ZM449,220.88a1.84,1.84,0,0,0-.84,1.43,3.59,3.59,0,0,0,.41,1.94l.05,0,3.62-2.42-.14-.21a2.64,2.64,0,0,0-1.39-1.12A2,2,0,0,0,449,220.88Z"/><path class="cls-3" d="M458.86,214l-.85.63a2.3,2.3,0,0,0-.75,1,2.09,2.09,0,0,0,0,1.14l4.79,5.95-1.92,1.54-6.89-8.55,1.76-1.42,1.12,1.14a3.61,3.61,0,0,1,0-1.7,2.42,2.42,0,0,1,.88-1.31,1.77,1.77,0,0,1,.34-.24l.33-.15Z"/><path class="cls-3" d="M471.06,214.56a7.43,7.43,0,0,1-.73-.44,5.82,5.82,0,0,1-.63-.48,4.51,4.51,0,0,1-.06,1.86,3.41,3.41,0,0,1-1,1.66,3.63,3.63,0,0,1-2.51,1.2,3.2,3.2,0,0,1-2.34-1.11,2.87,2.87,0,0,1-.83-2.66,6.17,6.17,0,0,1,1.93-3.1l1.38-1.33-.67-.7a1.8,1.8,0,0,0-1.3-.62,2.07,2.07,0,0,0-1.38.66,2,2,0,0,0-.68,1.23,1.29,1.29,0,0,0,.36,1.1l-1.7,1.65-.05,0a2.73,2.73,0,0,1-.77-2.47,4.94,4.94,0,0,1,1.61-2.95,4.66,4.66,0,0,1,2.9-1.45,3.42,3.42,0,0,1,2.8,1.19l3.4,3.51a8.77,8.77,0,0,0,1,.88,7.28,7.28,0,0,0,1.06.67Zm-3.41.83a3.14,3.14,0,0,0,.89-1.5,2.38,2.38,0,0,0,0-1.46l-1.13-1.17L466,212.63a2.42,2.42,0,0,0-.84,1.55,1.63,1.63,0,0,0,.43,1.33,1.29,1.29,0,0,0,1,.43A1.64,1.64,0,0,0,467.65,215.39Z"/><path class="cls-3" d="M466.52,199.28l2,1.75,1.29-1.5,1.38,1.19-1.28,1.5,4.6,4a1.32,1.32,0,0,0,.93.4,1,1,0,0,0,.73-.4,1.72,1.72,0,0,0,.23-.32,2.7,2.7,0,0,0,.17-.34l1.54,1a2.89,2.89,0,0,1-.29.74,4.52,4.52,0,0,1-.51.75,2.87,2.87,0,0,1-2,1.1,3.51,3.51,0,0,1-2.4-1.05l-4.6-4-1.1,1.27-1.38-1.19,1.09-1.27-2-1.74Z"/><path class="cls-3" d="M483,200.65a4.81,4.81,0,0,1-3.41,2.14,5.6,5.6,0,0,1-4-1.15l-.33-.23a5.87,5.87,0,0,1-2.44-3.43,4.36,4.36,0,0,1,.72-3.72,4.32,4.32,0,0,1,3.08-2,5.26,5.26,0,0,1,3.62,1.13l1.18.84-4,5.58,0,.05a3.46,3.46,0,0,0,2.18.62,2.46,2.46,0,0,0,1.81-1.12,5.09,5.09,0,0,0,.79-1.53,5.82,5.82,0,0,0,.23-1.52l1.77.29a5.11,5.11,0,0,1-.19,1.88A7.23,7.23,0,0,1,483,200.65Zm-7.85-5.24a1.89,1.89,0,0,0-.28,1.65,3.62,3.62,0,0,0,1.08,1.66H476l2.53-3.54-.21-.15a2.6,2.6,0,0,0-1.69-.56A2,2,0,0,0,475.14,195.41Z"/><path class="cls-3" d="M270.91,185.05l-2,8.34,0,0,7-5,1.88,1.27L272,198.35l-1.45-1,2-2.95,2.67-3.66,0,0-7.09,5-1-.65,1.95-8.41,0,0-2.37,3.83-2,2.95-1.44-1,5.82-8.66Z"/><path class="cls-3" d="M275.58,196a4.2,4.2,0,0,1,2.34-1.86,3.61,3.61,0,0,1,4.37,2.85,4.21,4.21,0,0,1-.75,2.9l-.08.12a4.26,4.26,0,0,1-2.36,1.88,3.66,3.66,0,0,1-4.37-2.86,4.27,4.27,0,0,1,.76-2.9Zm1.38,1.08a3.37,3.37,0,0,0-.64,1.79,1.5,1.5,0,0,0,.77,1.34,1.52,1.52,0,0,0,1.53.15A3.33,3.33,0,0,0,280,199l.08-.12a3.31,3.31,0,0,0,.61-1.78,1.51,1.51,0,0,0-.76-1.36,1.49,1.49,0,0,0-1.53-.13,3.38,3.38,0,0,0-1.37,1.28Z"/><path class="cls-3" d="M286.12,198.26l-.52,1a2.76,2.76,0,0,1,1.31-.27,2.61,2.61,0,0,1,1.27.41,2.44,2.44,0,0,1,1.21,1.63,3.31,3.31,0,0,1-.65,2.3l-2.61,4.12-1.47-.93,2.6-4.11a1.75,1.75,0,0,0,.36-1.24,1.49,1.49,0,0,0-.74-.9,1.85,1.85,0,0,0-.89-.3,2,2,0,0,0-.89.17l-3,4.76-1.48-.93,4.15-6.56Z"/><path class="cls-3" d="M289.52,209.42l-1.51-.88,3.9-6.7,1.51.87Zm4.85-8.35-1.5-.88.76-1.31,1.51.87Z"/><path class="cls-3" d="M297.88,203,297,204.7l1.22.66-.62,1.14-1.22-.67-2.06,3.76a.92.92,0,0,0-.14.7.74.74,0,0,0,.38.44,1,1,0,0,0,.26.11,1.25,1.25,0,0,0,.26.07l-.45,1.21A2,2,0,0,1,294,212a2.75,2.75,0,0,1-.59-.25,2,2,0,0,1-1.05-1.21,2.45,2.45,0,0,1,.37-1.82l2.06-3.75-1-.57.62-1.14,1,.57.9-1.65Z"/><path class="cls-3" d="M297.52,209.34a4.22,4.22,0,0,1,2.12-2.11,3.63,3.63,0,0,1,4.66,2.34,4.18,4.18,0,0,1-.42,3l-.07.13a4.18,4.18,0,0,1-2.13,2.12,3.64,3.64,0,0,1-4.66-2.35,4.25,4.25,0,0,1,.43-3Zm1.49.91a3.45,3.45,0,0,0-.43,1.85,1.67,1.67,0,0,0,2.44,1.23,3.38,3.38,0,0,0,1.24-1.44l.07-.14a3.32,3.32,0,0,0,.41-1.83,1.65,1.65,0,0,0-2.45-1.23,3.42,3.42,0,0,0-1.21,1.43Z"/><path class="cls-3" d="M309.77,212.8l-.66-.34a1.63,1.63,0,0,0-.86-.17,1.41,1.41,0,0,0-.73.34l-2.27,4.89-1.58-.74,3.26-7,1.44.67-.37,1.07a2.48,2.48,0,0,1,1.08-.53,1.78,1.78,0,0,1,1.11.14l.26.15a1.56,1.56,0,0,1,.2.16Z"/><path class="cls-1" d="M406.3,244.29c.93-1,1.93-2.61,1-3.94a9.2,9.2,0,0,1-1.32-2.16,5.45,5.45,0,0,1-.25-2.23,5.63,5.63,0,0,1,5.89-5,5,5,0,0,1,4.83,5.37c-.21,1.62-.18,2.82,1.46,3.61.44.22,1.44.45,1.58,1,.19.72-1.45.22-1.64.13.26.27,2.53,1.65,1.43,2.08s-2.31-.81-3.1-1.27c-1.33-.77-.53,1.5-.41,2,.19.76.06,2.43-1.16,1.68-1-.61-1.06-2-1.85-2.78s-1.34,1.43-1.49,1.86-1.05,2.84-1.89,1.93c-.68-.74-.31-2.27-.16-3.14-.05.31-.86,1-1.1,1.18a3.7,3.7,0,0,1-1.79.94c-1.43.27-.55-.77-.07-1.29C406.46,244.12,406.15,244.46,406.3,244.29Z"/><path class="cls-3" d="M156.51,90.49l-2.67,2.91-1.29-1.17,7-7.7,3,2.75A3.87,3.87,0,0,1,164,89.77a3.31,3.31,0,0,1-3.17,3.47,3.92,3.92,0,0,1-2.6-1.18Zm.94-1L159.18,91a1.86,1.86,0,0,0,1.42.6,1.83,1.83,0,0,0,1.25-.63,1.78,1.78,0,0,0-.18-2.69l-1.73-1.57Z"/><path class="cls-3" d="M160.76,99.74l-1.29-1.18L167,90.31l1.29,1.18Z"/><path class="cls-3" d="M165.63,104.2c.09-.18.18-.36.28-.53a2.91,2.91,0,0,1,.32-.46,3.08,3.08,0,0,1-1.32,0,2.33,2.33,0,0,1-1.21-.61,2.54,2.54,0,0,1-.95-1.71,2.25,2.25,0,0,1,.68-1.7,2,2,0,0,1,1.83-.7,4.32,4.32,0,0,1,2.27,1.23l1,.92.46-.51a1.23,1.23,0,0,0,.38-.94,1.45,1.45,0,0,0-.52-1,1.48,1.48,0,0,0-.89-.43.93.93,0,0,0-.76.31L166,97l0,0a1.89,1.89,0,0,1,1.7-.64,3.49,3.49,0,0,1,2.15,1,3.36,3.36,0,0,1,1.15,2,2.43,2.43,0,0,1-.72,2l-2.33,2.54a6.39,6.39,0,0,0-.58.73,4.41,4.41,0,0,0-.42.77Zm-.73-2.36a2.23,2.23,0,0,0,1.1.56,1.68,1.68,0,0,0,1-.09l.78-.84-1-.94a1.79,1.79,0,0,0-1.14-.52,1.13,1.13,0,0,0-.91.36.89.89,0,0,0-.26.72A1.17,1.17,0,0,0,164.9,101.84Z"/><path class="cls-3" d="M174.48,101.79l-.68.89a2.86,2.86,0,0,1,1.33,0,2.65,2.65,0,0,1,1.19.63,2.5,2.5,0,0,1,.9,1.82,3.32,3.32,0,0,1-1.05,2.15l-3.29,3.59-1.29-1.17,3.28-3.59a1.74,1.74,0,0,0,.58-1.16,1.47,1.47,0,0,0-.56-1,1.89,1.89,0,0,0-.83-.45,1.83,1.83,0,0,0-.9,0l-3.8,4.15-1.29-1.18,5.24-5.72Z"/><path class="cls-3" d="M70.12,75.15l0,0a3.28,3.28,0,0,1,.62,2.7A4.07,4.07,0,0,1,69,80.33a3.87,3.87,0,0,1-3.14.67,4.43,4.43,0,0,1-2.73-1.94L62,77.42a4.43,4.43,0,0,1-.86-3.22,3.79,3.79,0,0,1,1.72-2.69,4.15,4.15,0,0,1,3-.85,3.26,3.26,0,0,1,2.33,1.56l0,0-1.39,1a2,2,0,0,0-3.12-.56,2,2,0,0,0-.92,1.66,3.51,3.51,0,0,0,.69,2.1l1.13,1.65a3.47,3.47,0,0,0,1.74,1.39,2.05,2.05,0,0,0,1.91-.29,2.18,2.18,0,0,0,1-1.4,2.26,2.26,0,0,0-.47-1.67Z"/><path class="cls-3" d="M71.06,74.1a4.22,4.22,0,0,1-.4-3A3.22,3.22,0,0,1,72.5,69a3.28,3.28,0,0,1,2.84-.16A4.17,4.17,0,0,1,77.45,71l.06.14a4.21,4.21,0,0,1,.41,3,3.3,3.3,0,0,1-1.86,2.13,3.26,3.26,0,0,1-2.83.16,4.27,4.27,0,0,1-2.11-2.14Zm1.63-.64a3.34,3.34,0,0,0,1.21,1.46,1.48,1.48,0,0,0,1.55,0,1.52,1.52,0,0,0,.91-1.23,3.4,3.4,0,0,0-.4-1.86l-.07-.14a3.31,3.31,0,0,0-1.22-1.43,1.65,1.65,0,0,0-2.46,1.2,3.52,3.52,0,0,0,.41,1.84Z"/><path class="cls-3" d="M78.76,70.62a5.12,5.12,0,0,1-.24-3.09,2.58,2.58,0,0,1,1.74-1.81,2.42,2.42,0,0,1,2.2.27l-1.4-4,1.64-.57L86.39,72,85,72.43l-.48-.85a2.72,2.72,0,0,1-4.07,1.5,4.35,4.35,0,0,1-1.65-2.32Zm1.69-.43a3.18,3.18,0,0,0,1,1.48,1.43,1.43,0,0,0,1.44.17,1.77,1.77,0,0,0,.81-.53,1.87,1.87,0,0,0,.37-.85l-1.12-3.19a1.86,1.86,0,0,0-.82-.43,1.72,1.72,0,0,0-.94.08,1.41,1.41,0,0,0-1,1.14,4,4,0,0,0,.24,2Z"/><path class="cls-3" d="M91.21,70.89a3.37,3.37,0,0,1-2.8-.44A4,4,0,0,1,86.81,68l-.06-.28a4,4,0,0,1,.29-3,3.09,3.09,0,0,1,2.11-1.65,3,3,0,0,1,2.56.37,3.69,3.69,0,0,1,1.4,2.28l.24,1-4.71,1.12v0a2.43,2.43,0,0,0,.87,1.34A1.69,1.69,0,0,0,91,69.5a3.6,3.6,0,0,0,1.13-.44,4,4,0,0,0,.83-.71l.81,1a3.63,3.63,0,0,1-1,.91A5,5,0,0,1,91.21,70.89Zm-1.74-6.43a1.32,1.32,0,0,0-.91.75,2.48,2.48,0,0,0-.2,1.38l0,0,3-.71,0-.17a1.89,1.89,0,0,0-.64-1.09A1.42,1.42,0,0,0,89.47,64.46Z"/><path class="cls-3" d="M34.81,139.61,45,137.56l.68,3.41a4.46,4.46,0,0,1-.17,2.79,2.49,2.49,0,0,1-1.9,1.38,2.13,2.13,0,0,1-1.32-.15,2.43,2.43,0,0,1-1-1,2.29,2.29,0,0,1-.6,1.58,2.54,2.54,0,0,1-1.47.8,2.63,2.63,0,0,1-2.37-.5,4.11,4.11,0,0,1-1.27-2.45Zm5,.78-3.28.66L37,143.2a2.12,2.12,0,0,0,.67,1.28,1.48,1.48,0,0,0,1.27.24,1.83,1.83,0,0,0,1.18-.65,1.62,1.62,0,0,0,.2-1.34Zm1.27-.26.38,1.89a2,2,0,0,0,.63,1.18,1.3,1.3,0,0,0,1.15.24,1.32,1.32,0,0,0,1-.71,2.32,2.32,0,0,0,.09-1.49L44,139.55Z"/><path class="cls-3" d="M39.87,153.72a2.67,2.67,0,0,1-1.21-.53,2.49,2.49,0,0,1-.77-1.09,2.46,2.46,0,0,1,0-2.11A3.74,3.74,0,0,1,40,148.46l4.34-1.63.61,1.62-4.35,1.64a2.33,2.33,0,0,0-1.22.81,1.19,1.19,0,0,0,0,1.08,2.27,2.27,0,0,0,.58.91,1.81,1.81,0,0,0,.85.4l5.25-2,.61,1.63-7.25,2.73-.54-1.42Z"/><path class="cls-3" d="M41.35,159.6,40.57,158l6.93-3.47.78,1.56ZM50,155.28l-.78-1.56,1.37-.68.78,1.55Z"/><path class="cls-3" d="M43.41,163.29l-.88-1.51,9.66-5.63.88,1.51Z"/><path class="cls-3" d="M47.6,163.07A5.12,5.12,0,0,1,50.49,162a2.6,2.6,0,0,1,2.23,1.14,2.47,2.47,0,0,1,.46,1.06,2.56,2.56,0,0,1-.08,1.13l3.45-2.51,1,1.41-9,6.58-.86-1.18.67-.7a2.63,2.63,0,0,1-1.2-.24,2.58,2.58,0,0,1-.94-.82,2.64,2.64,0,0,1-.47-2.41,4.44,4.44,0,0,1,1.74-2.25Zm.9,1.5a3.1,3.1,0,0,0-1.14,1.34,1.45,1.45,0,0,0,.26,1.43,1.66,1.66,0,0,0,.74.62,1.84,1.84,0,0,0,.91.11l2.74-2a1.94,1.94,0,0,0,.17-.91,1.69,1.69,0,0,0-.35-.88,1.42,1.42,0,0,0-1.38-.62,4,4,0,0,0-1.82.81Z"/><path class="cls-3" d="M114.09,189.48l-3.13.43,1.23,9-1.73.24-1.22-9-3.13.43-.19-1.39,8-1.09Z"/><path class="cls-3" d="M119.61,197.62a3.37,3.37,0,0,1-2.8-.47,4,4,0,0,1-1.57-2.48l-.07-.28a4.12,4.12,0,0,1,.33-3,3.1,3.1,0,0,1,2.12-1.62,3,3,0,0,1,2.56.4,3.71,3.71,0,0,1,1.38,2.29l.23,1-4.72,1.08v0a2.43,2.43,0,0,0,.86,1.35,1.73,1.73,0,0,0,1.47.26,3.52,3.52,0,0,0,1.14-.44,3.59,3.59,0,0,0,.83-.69l.8,1a3.43,3.43,0,0,1-1,.89A4.93,4.93,0,0,1,119.61,197.62Zm-1.67-6.44a1.29,1.29,0,0,0-.92.73,2.49,2.49,0,0,0-.22,1.38l0,0,3-.69,0-.17a1.85,1.85,0,0,0-.63-1.09A1.35,1.35,0,0,0,117.94,191.18Z"/><path class="cls-3" d="M128,192.84a.82.82,0,0,0-.54-.52,3.32,3.32,0,0,0-1.36,0,5.31,5.31,0,0,1-2.26-.12,1.75,1.75,0,0,1-1.15-1.17,2.1,2.1,0,0,1,.25-1.84,3.26,3.26,0,0,1,1.85-1.34,3.44,3.44,0,0,1,2.36-.06,2.07,2.07,0,0,1,1.3,1.39v.05l-1.58.53a1.12,1.12,0,0,0-.61-.67,1.43,1.43,0,0,0-1.06,0,1.47,1.47,0,0,0-.82.58.86.86,0,0,0-.09.76.77.77,0,0,0,.5.52,3.54,3.54,0,0,0,1.33,0,5.46,5.46,0,0,1,2.33.11,1.8,1.8,0,0,1,1.14,1.2,2,2,0,0,1-.28,1.88,3.58,3.58,0,0,1-2,1.34,3.5,3.5,0,0,1-2.51,0,2.23,2.23,0,0,1-1.35-1.42v0l1.54-.51a1.14,1.14,0,0,0,.77.77,1.94,1.94,0,0,0,1.16-.06,1.75,1.75,0,0,0,.9-.57A.81.81,0,0,0,128,192.84Z"/><path class="cls-3" d="M130.4,183.77l.74,1.73,1.28-.54.51,1.19-1.28.54,1.68,3.94a.94.94,0,0,0,.46.55.76.76,0,0,0,.59,0,1.19,1.19,0,0,0,.25-.13l.21-.16.67,1.1a2,2,0,0,1-.42.38,2.52,2.52,0,0,1-.56.31,2,2,0,0,1-1.6.08,2.49,2.49,0,0,1-1.19-1.42l-1.69-3.94-1.08.46-.51-1.18,1.09-.47-.74-1.73Z"/><path class="cls-4" d="M80.18,143V122.16H86.6a9.82,9.82,0,0,1,4.92,1.24,8.69,8.69,0,0,1,3.38,3.52,10.93,10.93,0,0,1,1.22,5.2v1a10.87,10.87,0,0,1-1.2,5.17,8.51,8.51,0,0,1-3.37,3.51A9.83,9.83,0,0,1,86.64,143Zm4.3-17.38v13.93h2.07a4.68,4.68,0,0,0,3.86-1.65,7.5,7.5,0,0,0,1.36-4.71V132.1a7.57,7.57,0,0,0-1.32-4.82,4.66,4.66,0,0,0-3.85-1.64Z"/><path class="cls-4" d="M111.79,134h-8.25v5.62h9.68V143h-14V122.16h14v3.48h-9.65v5h8.25Z"/><path class="cls-4" d="M123.45,137.85l4.73-15.69H133L125.7,143h-4.48L114,122.16h4.77Z"/><path class="cls-4" d="M355.62,133.57a21.27,21.27,0,0,1-1.85,9.14,13.84,13.84,0,0,1-5.27,6.06,15.56,15.56,0,0,1-15.7,0,14.07,14.07,0,0,1-5.33-6,20.75,20.75,0,0,1-1.92-9V132a21.21,21.21,0,0,1,1.88-9.17,14.09,14.09,0,0,1,5.31-6.09,15.58,15.58,0,0,1,15.69,0,14.09,14.09,0,0,1,5.31,6.09,21.15,21.15,0,0,1,1.88,9.15Zm-7.37-1.6c0-3.7-.67-6.51-2-8.43a7,7,0,0,0-11.32,0q-2,2.85-2,8.35v1.72c0,3.61.67,6.4,2,8.39a7,7,0,0,0,11.35.11c1.31-1.91,2-4.71,2-8.37Z"/><path class="cls-4" d="M368.17,138v12.43H360.9v-35.3h13.77a16,16,0,0,1,7,1.46,10.74,10.74,0,0,1,4.64,4.13,11.57,11.57,0,0,1,1.62,6.1,10.11,10.11,0,0,1-3.55,8.18q-3.56,3-9.83,3Zm0-5.9h6.5a6.42,6.42,0,0,0,4.4-1.35,5,5,0,0,0,1.52-3.88,5.84,5.84,0,0,0-1.53-4.2,5.71,5.71,0,0,0-4.22-1.64h-6.67Z"/><path class="cls-4" d="M411.23,141.16a3.72,3.72,0,0,0-1.45-3.16,19.1,19.1,0,0,0-5.24-2.33,37.74,37.74,0,0,1-6-2.41q-6-3.25-6-8.75a8.58,8.58,0,0,1,1.61-5.11,10.59,10.59,0,0,1,4.63-3.5,17.43,17.43,0,0,1,6.78-1.26A15.91,15.91,0,0,1,412.3,116a10.67,10.67,0,0,1,4.59,3.87,10.1,10.1,0,0,1,1.64,5.67h-7.28a4.75,4.75,0,0,0-1.52-3.77,6.27,6.27,0,0,0-4.29-1.35,6.74,6.74,0,0,0-4.15,1.13,3.54,3.54,0,0,0-1.48,3,3.41,3.41,0,0,0,1.74,2.89,19.66,19.66,0,0,0,5.1,2.18q6.21,1.86,9,4.63a9.22,9.22,0,0,1,2.84,6.88,8.5,8.5,0,0,1-3.47,7.19q-3.46,2.61-9.33,2.61a18.08,18.08,0,0,1-7.42-1.49,11.77,11.77,0,0,1-5.1-4.09,10.39,10.39,0,0,1-1.76-6h7.3q0,5.84,7,5.84a6.82,6.82,0,0,0,4-1A3.44,3.44,0,0,0,411.23,141.16Z"/></svg>