<svg width="736" height="298" viewBox="0 0 736 298" xmlns="http://www.w3.org/2000/svg" xmlns:xlink="http://www.w3.org/1999/xlink"><title>modules_hierarchy</title><defs><path d="M2 0a2 2 0 0 0-2 2v28a2 2 0 0 0 2 2h100a2 2 0 0 0 2-2V2a2 2 0 0 0-2-2H2zM0 0h104v32H0V0z" id="b"/><rect id="a" width="129" height="32" rx="2"/><mask id="d" x="0" y="0" width="129" height="32" fill="#fff"><use xlink:href="#a"/></mask></defs><g fill="none" fill-rule="evenodd"><g transform="translate(346 21)"><mask id="c" fill="#fff"><use xlink:href="#b"/></mask><path d="M2 0a2 2 0 0 0-2 2v28a2 2 0 0 0 2 2h100a2 2 0 0 0 2-2V2a2 2 0 0 0-2-2H2z" mask="url(#c)"/></g><text font-family="Roboto-Bold, Roboto" font-size="14" font-weight="bold" letter-spacing="-.33" fill="#FFF"><tspan x="362.357" y="37.685">A</tspan> <tspan x="371.119" y="37.685">pplication</tspan></text><path d="M282 130H182a2 2 0 0 1-2-2v-28a2 2 0 0 1 2-2h100a2 2 0 0 1 2 2v28a2 2 0 0 1-2 2" fill="#29B6F6"/><path d="M214.141 114.882c-.965-.278-1.667-.618-2.106-1.023a1.954 1.954 0 0 1-.66-1.497c0-.672.269-1.227.806-1.667.537-.44 1.235-.659 2.095-.659.586 0 1.108.113 1.567.34.46.227.815.539 1.067.937.252.399.378.834.378 1.307h-1.131c0-.516-.164-.92-.492-1.216-.329-.295-.791-.442-1.39-.442-.554 0-.986.122-1.297.366-.31.244-.466.583-.466 1.017 0 .347.148.641.443.882.295.24.796.46 1.505.659.71.199 1.264.419 1.665.659.4.24.697.52.89.84.193.321.29.698.29 1.132 0 .691-.27 1.245-.808 1.66-.54.417-1.26.625-2.163.625a4.01 4.01 0 0 1-1.64-.337c-.508-.225-.9-.532-1.175-.923a2.252 2.252 0 0 1-.413-1.33h1.13c0 .516.191.923.572 1.222.381.298.89.448 1.526.448.594 0 1.05-.121 1.366-.363.316-.243.474-.573.474-.99 0-.419-.146-.742-.44-.97-.292-.229-.823-.455-1.593-.677zm7.067 3.92c-.86 0-1.56-.282-2.098-.847-.54-.564-.809-1.32-.809-2.265v-.199c0-.629.12-1.19.36-1.684.24-.495.577-.881 1.008-1.16.432-.28.9-.42 1.404-.42.824 0 1.465.272 1.922.815.457.543.685 1.32.685 2.332v.451h-4.295c.016.625.198 1.13.548 1.515.35.385.794.577 1.333.577.383 0 .707-.078.973-.234.265-.157.498-.364.697-.621l.662.515c-.531.817-1.328 1.225-2.39 1.225zm-.135-5.684c-.438 0-.805.16-1.102.478-.297.318-.48.764-.55 1.339h3.175v-.082c-.031-.551-.18-.978-.445-1.28-.266-.303-.625-.455-1.078-.455zm6.926.2a3.248 3.248 0 0 0-.534-.042c-.71 0-1.193.303-1.447.909v4.5h-1.084v-6.34h1.055l.017.732c.356-.566.86-.85 1.512-.85.211 0 .371.028.48.083v1.007zm3.193 3.896l1.57-4.87h1.108l-2.274 6.34h-.826l-2.297-6.34h1.108l1.61 4.87zm4.898 1.47h-1.084v-6.34h1.084v6.34zm-1.172-8.02c0-.177.054-.325.162-.446.107-.121.266-.182.477-.182.211 0 .371.06.48.182a.64.64 0 0 1 .165.445.62.62 0 0 1-.164.44c-.11.117-.27.175-.48.175-.212 0-.371-.058-.478-.175a.626.626 0 0 1-.162-.44zm5.45 7.253c.386 0 .724-.117 1.013-.352.29-.234.45-.527.48-.878h1.026c-.02.363-.144.708-.375 1.037a2.47 2.47 0 0 1-.923.785 2.663 2.663 0 0 1-1.221.293c-.864 0-1.55-.288-2.06-.865-.51-.576-.765-1.364-.765-2.364v-.181c0-.618.114-1.166.34-1.647.227-.48.552-.853.976-1.119.424-.266.925-.398 1.503-.398.71 0 1.302.212 1.772.638.471.426.722.979.753 1.658h-1.025a1.494 1.494 0 0 0-.466-1.01 1.45 1.45 0 0 0-1.034-.396c-.551 0-.978.198-1.28.595-.303.396-.455.97-.455 1.72v.205c0 .73.15 1.293.452 1.687.3.395.73.592 1.289.592zm6.369.885c-.86 0-1.559-.282-2.098-.847-.539-.564-.808-1.32-.808-2.265v-.199c0-.629.12-1.19.36-1.684a2.8 2.8 0 0 1 1.008-1.16c.431-.28.9-.42 1.403-.42.824 0 1.465.272 1.922.815.457.543.685 1.32.685 2.332v.451h-4.294c.015.625.198 1.13.547 1.515.35.385.794.577 1.333.577.383 0 .707-.078.973-.234.266-.157.498-.364.697-.621l.662.515c-.53.817-1.328 1.225-2.39 1.225zm-.135-5.684c-.437 0-.805.16-1.102.478-.296.318-.48.764-.55 1.339h3.175v-.082c-.03-.551-.18-.978-.445-1.28-.265-.303-.625-.455-1.078-.455z" fill="#FFF"/><path d="M218 197H118a2 2 0 0 1-2-2v-28a2 2 0 0 1 2-2h100a2 2 0 0 1 2 2v28a2 2 0 0 1-2 2" fill="#81D4FA"/><path d="M152.271 183.19l2.438-7.037h1.23l-3.164 8.532h-.996l-3.158-8.532h1.225l2.425 7.037zm6.76 1.612c-.86 0-1.559-.282-2.098-.847-.539-.564-.809-1.32-.809-2.265v-.199c0-.629.12-1.19.36-1.684a2.809 2.809 0 0 1 1.009-1.16c.431-.28.9-.42 1.403-.42.824 0 1.465.272 1.922.815.457.543.685 1.32.685 2.332v.451h-4.295c.016.625.199 1.13.548 1.515.35.385.794.577 1.333.577.383 0 .707-.078.973-.234.266-.157.498-.364.697-.621l.662.515c-.53.817-1.328 1.225-2.39 1.225zm-.135-5.684c-.438 0-.805.16-1.102.478-.296.318-.48.764-.55 1.339h3.175v-.082c-.03-.551-.18-.978-.445-1.28-.266-.303-.625-.455-1.078-.455zm6.708.2a3.248 3.248 0 0 0-.534-.042c-.71 0-1.193.303-1.447.909v4.5h-1.084v-6.34h1.055l.017.732c.356-.566.86-.85 1.512-.85.211 0 .371.028.48.083v1.007zm4.47 3.685a.8.8 0 0 0-.332-.683c-.22-.162-.605-.301-1.154-.419-.55-.117-.985-.257-1.307-.422-.322-.164-.56-.359-.715-.585a1.402 1.402 0 0 1-.231-.81c0-.519.22-.958.659-1.317.44-.36 1.001-.54 1.685-.54.718 0 1.301.186 1.749.557.447.371.67.846.67 1.424h-1.09c0-.297-.125-.553-.377-.768-.252-.214-.57-.322-.952-.322-.395 0-.704.086-.926.258a.812.812 0 0 0-.334.674c0 .262.103.459.31.592.207.132.581.26 1.122.38.541.122.98.266 1.316.434.336.168.585.37.747.606.162.237.243.525.243.865a1.62 1.62 0 0 1-.68 1.362c-.453.342-1.04.513-1.763.513-.508 0-.957-.09-1.348-.27-.39-.18-.696-.43-.917-.753a1.815 1.815 0 0 1-.331-1.046h1.084c.02.364.165.652.437.865.271.213.63.319 1.075.319.41 0 .739-.083.987-.25.248-.165.372-.387.372-.664zm3.455 1.682h-1.084v-6.34h1.084v6.34zm-1.172-8.022c0-.176.054-.324.161-.445.108-.121.267-.182.478-.182.21 0 .37.06.48.182a.64.64 0 0 1 .164.445.62.62 0 0 1-.164.44c-.11.117-.27.175-.48.175-.211 0-.37-.058-.478-.175a.626.626 0 0 1-.161-.44zm2.401 4.793c0-.621.122-1.18.366-1.676a2.732 2.732 0 0 1 1.02-1.148c.435-.27.932-.404 1.491-.404.863 0 1.562.298 2.095.896.533.598.8 1.393.8 2.385v.076c0 .617-.119 1.17-.355 1.661-.236.49-.574.872-1.014 1.146-.439.273-.944.41-1.514.41-.86 0-1.556-.3-2.09-.897-.532-.597-.799-1.388-.799-2.373v-.076zm1.09.129c0 .703.163 1.268.49 1.693.325.426.762.639 1.309.639.55 0 .988-.216 1.312-.647.324-.432.487-1.037.487-1.814 0-.695-.165-1.259-.496-1.69a1.574 1.574 0 0 0-1.315-.648c-.535 0-.967.213-1.295.639-.328.426-.492 1.035-.492 1.828zm6.848-3.24l.035.797c.485-.61 1.118-.914 1.899-.914 1.34 0 2.016.755 2.027 2.267v4.19h-1.084v-4.196c-.004-.457-.108-.795-.313-1.013-.205-.22-.525-.329-.958-.329-.352 0-.66.094-.926.282a1.91 1.91 0 0 0-.621.738v4.518h-1.084v-6.34h1.025z" fill="#000"/><path d="M346 197H246a2 2 0 0 1-2-2v-28a2 2 0 0 1 2-2h100a2 2 0 0 1 2 2v28a2 2 0 0 1-2 2" fill="#81D4FA"/><path d="M280.271 183.19l2.438-7.037h1.23l-3.164 8.532h-.996l-3.158-8.532h1.225l2.425 7.037zm6.76 1.612c-.86 0-1.559-.282-2.098-.847-.539-.564-.809-1.32-.809-2.265v-.199c0-.629.12-1.19.36-1.684a2.809 2.809 0 0 1 1.009-1.16c.431-.28.9-.42 1.403-.42.824 0 1.465.272 1.922.815.457.543.685 1.32.685 2.332v.451h-4.295c.016.625.199 1.13.548 1.515.35.385.794.577 1.333.577.383 0 .707-.078.973-.234.266-.157.498-.364.697-.621l.662.515c-.53.817-1.328 1.225-2.39 1.225zm-.135-5.684c-.438 0-.805.16-1.102.478-.296.318-.48.764-.55 1.339h3.175v-.082c-.03-.551-.18-.978-.445-1.28-.266-.303-.625-.455-1.078-.455zm6.708.2a3.248 3.248 0 0 0-.534-.042c-.71 0-1.193.303-1.447.909v4.5h-1.084v-6.34h1.055l.017.732c.356-.566.86-.85 1.512-.85.211 0 .371.028.48.083v1.007zm4.47 3.685a.8.8 0 0 0-.332-.683c-.22-.162-.605-.301-1.154-.419-.55-.117-.985-.257-1.307-.422-.322-.164-.56-.359-.715-.585a1.402 1.402 0 0 1-.231-.81c0-.519.22-.958.659-1.317.44-.36 1.001-.54 1.685-.54.718 0 1.301.186 1.749.557.447.371.67.846.67 1.424h-1.09c0-.297-.125-.553-.377-.768-.252-.214-.57-.322-.952-.322-.395 0-.704.086-.926.258a.812.812 0 0 0-.334.674c0 .262.103.459.31.592.207.132.581.26 1.122.38.541.122.98.266 1.316.434.336.168.585.37.747.606.162.237.243.525.243.865a1.62 1.62 0 0 1-.68 1.362c-.453.342-1.04.513-1.763.513-.508 0-.957-.09-1.348-.27-.39-.18-.696-.43-.917-.753a1.815 1.815 0 0 1-.331-1.046h1.084c.02.364.165.652.437.865.271.213.63.319 1.075.319.41 0 .739-.083.987-.25.248-.165.372-.387.372-.664zm3.455 1.682h-1.084v-6.34h1.084v6.34zm-1.172-8.022c0-.176.054-.324.161-.445.108-.121.267-.182.478-.182.21 0 .37.06.48.182a.64.64 0 0 1 .164.445.62.62 0 0 1-.164.44c-.11.117-.27.175-.48.175-.211 0-.37-.058-.478-.175a.626.626 0 0 1-.161-.44zm2.401 4.793c0-.621.122-1.18.366-1.676a2.732 2.732 0 0 1 1.02-1.148c.435-.27.932-.404 1.491-.404.863 0 1.562.298 2.095.896.533.598.8 1.393.8 2.385v.076c0 .617-.119 1.17-.355 1.661-.236.49-.574.872-1.014 1.146-.439.273-.944.41-1.514.41-.86 0-1.556-.3-2.09-.897-.532-.597-.799-1.388-.799-2.373v-.076zm1.09.129c0 .703.163 1.268.49 1.693.325.426.762.639 1.309.639.55 0 .988-.216 1.312-.647.324-.432.487-1.037.487-1.814 0-.695-.165-1.259-.496-1.69a1.574 1.574 0 0 0-1.315-.648c-.535 0-.967.213-1.295.639-.328.426-.492 1.035-.492 1.828zm6.848-3.24l.035.797c.485-.61 1.118-.914 1.899-.914 1.34 0 2.016.755 2.027 2.267v4.19h-1.084v-4.196c-.004-.457-.108-.795-.313-1.013-.205-.22-.525-.329-.958-.329-.352 0-.66.094-.926.282a1.91 1.91 0 0 0-.621.738v4.518h-1.084v-6.34h1.025z" fill="#000"/><path d="M613 130H513a2 2 0 0 1-2-2v-28a2 2 0 0 1 2-2h100a2 2 0 0 1 2 2v28a2 2 0 0 1-2 2" fill="#29B6F6"/><path d="M545.616 114.882c-.965-.278-1.667-.618-2.107-1.023a1.954 1.954 0 0 1-.659-1.497c0-.672.269-1.227.806-1.667.537-.44 1.235-.659 2.094-.659.586 0 1.109.113 1.568.34.459.227.814.539 1.066.937.252.399.378.834.378 1.307h-1.13c0-.516-.165-.92-.493-1.216-.328-.295-.79-.442-1.389-.442-.554 0-.987.122-1.297.366-.31.244-.466.583-.466 1.017 0 .347.147.641.442.882.295.24.797.46 1.506.659s1.264.419 1.664.659c.4.24.697.52.89.84.194.321.29.698.29 1.132 0 .691-.269 1.245-.808 1.66-.539.417-1.26.625-2.162.625a4.01 4.01 0 0 1-1.64-.337c-.508-.225-.9-.532-1.175-.923a2.252 2.252 0 0 1-.413-1.33h1.13c0 .516.19.923.572 1.222.38.298.89.448 1.526.448.594 0 1.049-.121 1.365-.363.317-.243.475-.573.475-.99 0-.419-.147-.742-.44-.97-.293-.229-.824-.455-1.593-.677zm7.066 3.92c-.86 0-1.558-.282-2.098-.847-.539-.564-.808-1.32-.808-2.265v-.199c0-.629.12-1.19.36-1.684a2.8 2.8 0 0 1 1.008-1.16c.432-.28.9-.42 1.403-.42.825 0 1.465.272 1.922.815.457.543.686 1.32.686 2.332v.451h-4.295c.015.625.198 1.13.548 1.515.35.385.794.577 1.333.577.383 0 .707-.078.972-.234.266-.157.498-.364.698-.621l.662.515c-.532.817-1.328 1.225-2.39 1.225zm-.135-5.684c-.437 0-.804.16-1.101.478-.297.318-.48.764-.551 1.339h3.176v-.082c-.031-.551-.18-.978-.446-1.28-.265-.303-.625-.455-1.078-.455zm6.926.2a3.248 3.248 0 0 0-.533-.042c-.711 0-1.193.303-1.447.909v4.5h-1.084v-6.34h1.054l.018.732c.355-.566.86-.85 1.512-.85.21 0 .37.028.48.083v1.007zm3.193 3.896l1.57-4.87h1.108l-2.273 6.34h-.826l-2.297-6.34h1.107l1.611 4.87zm4.899 1.47h-1.084v-6.34h1.084v6.34zm-1.172-8.02c0-.177.054-.325.161-.446.108-.121.267-.182.478-.182.21 0 .37.06.48.182a.64.64 0 0 1 .164.445.62.62 0 0 1-.164.44c-.11.117-.27.175-.48.175-.211 0-.37-.058-.478-.175a.626.626 0 0 1-.161-.44zm5.45 7.253c.386 0 .724-.117 1.013-.352a1.23 1.23 0 0 0 .48-.878h1.026c-.02.363-.145.708-.375 1.037a2.47 2.47 0 0 1-.923.785 2.663 2.663 0 0 1-1.222.293c-.863 0-1.55-.288-2.06-.865-.51-.576-.764-1.364-.764-2.364v-.181c0-.618.113-1.166.34-1.647.226-.48.552-.853.975-1.119.424-.266.925-.398 1.503-.398.711 0 1.302.212 1.773.638.47.426.722.979.753 1.658h-1.026a1.494 1.494 0 0 0-.465-1.01 1.45 1.45 0 0 0-1.035-.396c-.55 0-.977.198-1.28.595-.303.396-.454.97-.454 1.72v.205c0 .73.15 1.293.451 1.687.301.395.73.592 1.29.592zm6.368.885c-.859 0-1.558-.282-2.097-.847-.54-.564-.809-1.32-.809-2.265v-.199c0-.629.12-1.19.36-1.684.24-.495.577-.881 1.008-1.16.432-.28.9-.42 1.404-.42.824 0 1.464.272 1.922.815.457.543.685 1.32.685 2.332v.451h-4.295c.016.625.198 1.13.548 1.515.35.385.794.577 1.333.577.383 0 .707-.078.973-.234.265-.157.498-.364.697-.621l.662.515c-.531.817-1.328 1.225-2.39 1.225zm-.134-5.684c-.438 0-.805.16-1.102.478-.297.318-.48.764-.55 1.339h3.175v-.082c-.031-.551-.18-.978-.445-1.28-.266-.303-.625-.455-1.078-.455z" fill="#FFF"/><path d="M232 130v16m164-83v16m167 51v16m-395 15.132V146h128v15.132" stroke="#616161"/><path fill="#616161" d="M171.272 158.482l-.586-.546-2.685 2.89-2.686-2.89-.586.546L168 162zm121.456 0l.586-.546 2.685 2.89 2.686-2.89.586.546L296 162z"/><path stroke="#616161" d="M499 161.132V146h128v15.132"/><path fill="#616161" d="M502.272 158.482l-.586-.546-2.685 2.89-2.686-2.89-.586.546L499 162zm121.456 0l.586-.546 2.685 2.89 2.686-2.89.586.546L627 162z"/><path stroke="#616161" d="M435 228.132V213h128v15.132"/><path fill="#616161" d="M438.272 225.482l-.586-.546-2.685 2.89-2.686-2.89-.586.546L435 229zm121.456 0l.586-.546 2.685 2.89 2.686-2.89.586.546L563 229z"/><path stroke="#616161" d="M104 228.132V213h128v15.132"/><path fill="#616161" d="M107.272 225.482l-.586-.546-2.685 2.89-2.686-2.89-.586.546L104 229zm121.456 0l.586-.546 2.685 2.89 2.686-2.89.586.546L232 229z"/><path d="M154 265H54a2 2 0 0 1-2-2v-28a2 2 0 0 1 2-2h100a2 2 0 0 1 2 2v28a2 2 0 0 1-2 2" fill="#E1F6FE"/><path d="M83.493 252.685h-1.125v-8.532h1.125v8.532zm2.912-6.34l.035.797c.484-.61 1.117-.914 1.898-.914 1.34 0 2.016.755 2.028 2.267v4.19h-1.084v-4.196c-.004-.457-.109-.795-.314-1.013-.205-.22-.524-.329-.958-.329-.351 0-.66.094-.926.282a1.91 1.91 0 0 0-.62.738v4.518h-1.085v-6.34h1.026zm9.287 4.658c0-.293-.11-.52-.331-.683-.22-.162-.606-.301-1.154-.419-.55-.117-.985-.257-1.307-.422-.322-.164-.56-.359-.715-.585a1.402 1.402 0 0 1-.231-.81c0-.519.22-.958.659-1.317.44-.36 1-.54 1.684-.54.72 0 1.302.186 1.75.557.447.371.67.846.67 1.424h-1.09c0-.297-.126-.553-.377-.768-.252-.214-.57-.322-.953-.322-.394 0-.703.086-.925.258a.812.812 0 0 0-.334.674c0 .262.103.459.31.592.207.132.581.26 1.122.38.541.122.98.266 1.316.434.336.168.585.37.747.606.162.237.243.525.243.865 0 .566-.227 1.02-.68 1.362-.453.342-1.04.513-1.763.513-.508 0-.958-.09-1.348-.27-.39-.18-.696-.43-.917-.753a1.815 1.815 0 0 1-.331-1.046h1.084c.02.364.165.652.436.865.272.213.63.319 1.076.319.41 0 .739-.083.987-.25.248-.165.372-.387.372-.664zm3.967-6.193v1.535h1.183v.838H99.66v3.931c0 .254.052.445.158.572.105.126.285.19.539.19.125 0 .297-.023.516-.07v.879a3.143 3.143 0 0 1-.832.117c-.485 0-.85-.147-1.096-.44-.246-.293-.37-.709-.37-1.248v-3.931H97.42v-.838h1.155v-1.535h1.084zm6.363 7.875c-.063-.125-.113-.348-.152-.668-.504.523-1.106.785-1.805.785-.625 0-1.138-.177-1.538-.53-.4-.354-.6-.802-.6-1.345 0-.66.25-1.173.752-1.538.502-.366 1.208-.548 2.118-.548h1.055v-.498c0-.38-.113-.68-.34-.906-.226-.224-.56-.336-1.002-.336-.386 0-.71.097-.972.293-.262.195-.393.431-.393.709h-1.09c0-.317.112-.623.337-.917a2.3 2.3 0 0 1 .914-.7 3.075 3.075 0 0 1 1.269-.258c.73 0 1.302.182 1.716.547.415.366.63.869.645 1.51v2.917c0 .582.074 1.045.223 1.389v.094h-1.137zm-1.799-.827c.34 0 .662-.088.967-.263.305-.176.525-.405.662-.686v-1.3h-.85c-1.328 0-1.992.388-1.992 1.165 0 .34.114.606.34.797.227.192.518.287.873.287zm5.438-5.513l.035.797c.484-.61 1.117-.914 1.898-.914 1.34 0 2.016.755 2.028 2.267v4.19h-1.084v-4.196c-.004-.457-.109-.795-.314-1.013-.205-.22-.524-.329-.958-.329-.351 0-.66.094-.926.282a1.91 1.91 0 0 0-.62.738v4.518h-1.085v-6.34h1.026zm8.138 5.572c.387 0 .725-.117 1.014-.352a1.23 1.23 0 0 0 .48-.878h1.026c-.02.363-.145.708-.375 1.037a2.47 2.47 0 0 1-.923.785 2.663 2.663 0 0 1-1.222.293c-.863 0-1.55-.288-2.06-.865-.509-.576-.764-1.364-.764-2.364v-.181c0-.618.113-1.166.34-1.647.226-.48.552-.853.976-1.119.423-.266.924-.398 1.502-.398.711 0 1.302.212 1.773.638.47.426.722.979.753 1.658h-1.026a1.494 1.494 0 0 0-.465-1.01 1.45 1.45 0 0 0-1.035-.396c-.55 0-.977.198-1.28.595-.303.396-.454.97-.454 1.72v.205c0 .73.15 1.293.451 1.687.301.395.73.592 1.29.592zm6.37.885c-.86 0-1.56-.282-2.098-.847-.54-.564-.809-1.32-.809-2.265v-.199c0-.629.12-1.19.36-1.684.24-.495.577-.881 1.008-1.16.432-.28.9-.42 1.404-.42.824 0 1.465.272 1.922.815.457.543.685 1.32.685 2.332v.451h-4.295c.016.625.198 1.13.548 1.515.35.385.794.577 1.333.577.383 0 .707-.078.973-.234.265-.157.498-.364.697-.621l.662.515c-.531.817-1.328 1.225-2.39 1.225zm-.135-5.684c-.438 0-.805.16-1.102.478-.297.318-.48.764-.55 1.339h3.175v-.082c-.031-.551-.18-.978-.445-1.28-.266-.303-.625-.455-1.078-.455z" fill="#000"/><path d="M282 265H182a2 2 0 0 1-2-2v-28a2 2 0 0 1 2-2h100a2 2 0 0 1 2 2v28a2 2 0 0 1-2 2" fill="#E1F6FE"/><path d="M211.493 252.685h-1.125v-8.532h1.125v8.532zm2.912-6.34l.035.797c.484-.61 1.117-.914 1.898-.914 1.34 0 2.016.755 2.028 2.267v4.19h-1.084v-4.196c-.004-.457-.109-.795-.314-1.013-.205-.22-.524-.329-.958-.329-.351 0-.66.094-.926.282a1.91 1.91 0 0 0-.62.738v4.518h-1.085v-6.34h1.026zm9.287 4.658c0-.293-.11-.52-.331-.683-.22-.162-.606-.301-1.154-.419-.55-.117-.985-.257-1.307-.422-.322-.164-.56-.359-.715-.585a1.402 1.402 0 0 1-.231-.81c0-.519.22-.958.659-1.317.44-.36 1-.54 1.684-.54.72 0 1.302.186 1.75.557.447.371.67.846.67 1.424h-1.09c0-.297-.126-.553-.377-.768-.252-.214-.57-.322-.953-.322-.394 0-.703.086-.925.258a.812.812 0 0 0-.334.674c0 .262.103.459.31.592.207.132.581.26 1.122.38.541.122.98.266 1.316.434.336.168.585.37.747.606.162.237.243.525.243.865 0 .566-.227 1.02-.68 1.362-.453.342-1.04.513-1.763.513-.508 0-.958-.09-1.348-.27-.39-.18-.696-.43-.917-.753a1.815 1.815 0 0 1-.331-1.046h1.084c.02.364.165.652.436.865.272.213.63.319 1.076.319.41 0 .739-.083.987-.25.248-.165.372-.387.372-.664zm3.967-6.193v1.535h1.183v.838h-1.183v3.931c0 .254.052.445.158.572.105.126.285.19.539.19.125 0 .297-.023.516-.07v.879a3.143 3.143 0 0 1-.832.117c-.485 0-.85-.147-1.096-.44-.246-.293-.37-.709-.37-1.248v-3.931h-1.154v-.838h1.155v-1.535h1.084zm6.363 7.875c-.063-.125-.113-.348-.152-.668-.504.523-1.106.785-1.805.785-.625 0-1.138-.177-1.538-.53-.4-.354-.6-.802-.6-1.345 0-.66.25-1.173.752-1.538.502-.366 1.208-.548 2.118-.548h1.055v-.498c0-.38-.113-.68-.34-.906-.226-.224-.56-.336-1.002-.336-.386 0-.71.097-.972.293-.262.195-.393.431-.393.709h-1.09c0-.317.112-.623.337-.917a2.3 2.3 0 0 1 .914-.7 3.075 3.075 0 0 1 1.269-.258c.73 0 1.302.182 1.716.547.415.366.63.869.645 1.51v2.917c0 .582.074 1.045.223 1.389v.094h-1.137zm-1.799-.827c.34 0 .662-.088.967-.263.305-.176.525-.405.662-.686v-1.3h-.85c-1.328 0-1.992.388-1.992 1.165 0 .34.114.606.34.797.227.192.518.287.873.287zm5.438-5.513l.035.797c.484-.61 1.117-.914 1.898-.914 1.34 0 2.016.755 2.028 2.267v4.19h-1.084v-4.196c-.004-.457-.109-.795-.314-1.013-.205-.22-.524-.329-.958-.329-.351 0-.66.094-.926.282a1.91 1.91 0 0 0-.62.738v4.518h-1.085v-6.34h1.026zm8.138 5.572c.387 0 .725-.117 1.014-.352a1.23 1.23 0 0 0 .48-.878h1.026c-.02.363-.145.708-.375 1.037a2.47 2.47 0 0 1-.923.785 2.663 2.663 0 0 1-1.222.293c-.863 0-1.55-.288-2.06-.865-.509-.576-.764-1.364-.764-2.364v-.181c0-.618.113-1.166.34-1.647.226-.48.552-.853.976-1.119.423-.266.924-.398 1.502-.398.711 0 1.302.212 1.773.638.47.426.722.979.753 1.658h-1.026a1.494 1.494 0 0 0-.465-1.01 1.45 1.45 0 0 0-1.035-.396c-.55 0-.977.198-1.28.595-.303.396-.454.97-.454 1.72v.205c0 .73.15 1.293.451 1.687.301.395.73.592 1.29.592zm6.37.885c-.86 0-1.56-.282-2.098-.847-.54-.564-.809-1.32-.809-2.265v-.199c0-.629.12-1.19.36-1.684.24-.495.577-.881 1.008-1.16.432-.28.9-.42 1.404-.42.824 0 1.465.272 1.922.815.457.543.685 1.32.685 2.332v.451h-4.295c.016.625.198 1.13.548 1.515.35.385.794.577 1.333.577.383 0 .707-.078.973-.234.265-.157.498-.364.697-.621l.662.515c-.531.817-1.328 1.225-2.39 1.225zm-.135-5.684c-.438 0-.805.16-1.102.478-.297.318-.48.764-.55 1.339h3.175v-.082c-.031-.551-.18-.978-.445-1.28-.266-.303-.625-.455-1.078-.455z" fill="#000"/><path d="M168 197v16" stroke="#616161"/><path d="M485 265H385a2 2 0 0 1-2-2v-28a2 2 0 0 1 2-2h100a2 2 0 0 1 2 2v28a2 2 0 0 1-2 2" fill="#E1F6FE"/><path d="M414.493 252.685h-1.125v-8.532h1.125v8.532zm2.912-6.34l.035.797c.484-.61 1.117-.914 1.898-.914 1.34 0 2.016.755 2.028 2.267v4.19h-1.084v-4.196c-.004-.457-.109-.795-.314-1.013-.205-.22-.524-.329-.958-.329-.351 0-.66.094-.926.282a1.91 1.91 0 0 0-.62.738v4.518h-1.085v-6.34h1.026zm9.287 4.658c0-.293-.11-.52-.331-.683-.22-.162-.606-.301-1.154-.419-.55-.117-.985-.257-1.307-.422-.322-.164-.56-.359-.715-.585a1.402 1.402 0 0 1-.231-.81c0-.519.22-.958.659-1.317.44-.36 1-.54 1.684-.54.72 0 1.302.186 1.75.557.447.371.67.846.67 1.424h-1.09c0-.297-.126-.553-.377-.768-.252-.214-.57-.322-.953-.322-.394 0-.703.086-.925.258a.812.812 0 0 0-.334.674c0 .262.103.459.31.592.207.132.581.26 1.122.38.541.122.98.266 1.316.434.336.168.585.37.747.606.162.237.243.525.243.865 0 .566-.227 1.02-.68 1.362-.453.342-1.04.513-1.763.513-.508 0-.958-.09-1.348-.27-.39-.18-.696-.43-.917-.753a1.815 1.815 0 0 1-.331-1.046h1.084c.02.364.165.652.436.865.272.213.63.319 1.076.319.41 0 .739-.083.987-.25.248-.165.372-.387.372-.664zm3.967-6.193v1.535h1.183v.838h-1.183v3.931c0 .254.052.445.158.572.105.126.285.19.539.19.125 0 .297-.023.516-.07v.879a3.143 3.143 0 0 1-.832.117c-.485 0-.85-.147-1.096-.44-.246-.293-.37-.709-.37-1.248v-3.931h-1.154v-.838h1.155v-1.535h1.084zm6.363 7.875c-.063-.125-.113-.348-.152-.668-.504.523-1.106.785-1.805.785-.625 0-1.138-.177-1.538-.53-.4-.354-.6-.802-.6-1.345 0-.66.25-1.173.752-1.538.502-.366 1.208-.548 2.118-.548h1.055v-.498c0-.38-.113-.68-.34-.906-.226-.224-.56-.336-1.002-.336-.386 0-.71.097-.972.293-.262.195-.393.431-.393.709h-1.09c0-.317.112-.623.337-.917a2.3 2.3 0 0 1 .914-.7 3.075 3.075 0 0 1 1.269-.258c.73 0 1.302.182 1.716.547.415.366.63.869.645 1.51v2.917c0 .582.074 1.045.223 1.389v.094h-1.137zm-1.799-.827c.34 0 .662-.088.967-.263.305-.176.525-.405.662-.686v-1.3h-.85c-1.328 0-1.992.388-1.992 1.165 0 .34.114.606.34.797.227.192.518.287.873.287zm5.438-5.513l.035.797c.484-.61 1.117-.914 1.898-.914 1.34 0 2.016.755 2.028 2.267v4.19h-1.084v-4.196c-.004-.457-.109-.795-.314-1.013-.205-.22-.524-.329-.958-.329-.351 0-.66.094-.926.282a1.91 1.91 0 0 0-.62.738v4.518h-1.085v-6.34h1.026zm8.138 5.572c.387 0 .725-.117 1.014-.352a1.23 1.23 0 0 0 .48-.878h1.026c-.02.363-.145.708-.375 1.037a2.47 2.47 0 0 1-.923.785 2.663 2.663 0 0 1-1.222.293c-.863 0-1.55-.288-2.06-.865-.509-.576-.764-1.364-.764-2.364v-.181c0-.618.113-1.166.34-1.647.226-.48.552-.853.976-1.119.423-.266.924-.398 1.502-.398.711 0 1.302.212 1.773.638.47.426.722.979.753 1.658h-1.026a1.494 1.494 0 0 0-.465-1.01 1.45 1.45 0 0 0-1.035-.396c-.55 0-.977.198-1.28.595-.303.396-.454.97-.454 1.72v.205c0 .73.15 1.293.451 1.687.301.395.73.592 1.29.592zm6.37.885c-.86 0-1.56-.282-2.098-.847-.54-.564-.809-1.32-.809-2.265v-.199c0-.629.12-1.19.36-1.684.24-.495.577-.881 1.008-1.16.432-.28.9-.42 1.404-.42.824 0 1.465.272 1.922.815.457.543.685 1.32.685 2.332v.451h-4.295c.016.625.198 1.13.548 1.515.35.385.794.577 1.333.577.383 0 .707-.078.973-.234.265-.157.498-.364.697-.621l.662.515c-.531.817-1.328 1.225-2.39 1.225zm-.135-5.684c-.438 0-.805.16-1.102.478-.297.318-.48.764-.55 1.339h3.175v-.082c-.031-.551-.18-.978-.445-1.28-.266-.303-.625-.455-1.078-.455z" fill="#000"/><path d="M613 265H513a2 2 0 0 1-2-2v-28a2 2 0 0 1 2-2h100a2 2 0 0 1 2 2v28a2 2 0 0 1-2 2" fill="#E1F6FE"/><path d="M542.493 252.685h-1.125v-8.532h1.125v8.532zm2.912-6.34l.035.797c.484-.61 1.117-.914 1.898-.914 1.34 0 2.016.755 2.028 2.267v4.19h-1.084v-4.196c-.004-.457-.109-.795-.314-1.013-.205-.22-.524-.329-.958-.329-.351 0-.66.094-.926.282a1.91 1.91 0 0 0-.62.738v4.518h-1.085v-6.34h1.026zm9.287 4.658c0-.293-.11-.52-.331-.683-.22-.162-.606-.301-1.154-.419-.55-.117-.985-.257-1.307-.422-.322-.164-.56-.359-.715-.585a1.402 1.402 0 0 1-.231-.81c0-.519.22-.958.659-1.317.44-.36 1-.54 1.684-.54.72 0 1.302.186 1.75.557.447.371.67.846.67 1.424h-1.09c0-.297-.126-.553-.377-.768-.252-.214-.57-.322-.953-.322-.394 0-.703.086-.925.258a.812.812 0 0 0-.334.674c0 .262.103.459.31.592.207.132.581.26 1.122.38.541.122.98.266 1.316.434.336.168.585.37.747.606.162.237.243.525.243.865 0 .566-.227 1.02-.68 1.362-.453.342-1.04.513-1.763.513-.508 0-.958-.09-1.348-.27-.39-.18-.696-.43-.917-.753a1.815 1.815 0 0 1-.331-1.046h1.084c.02.364.165.652.436.865.272.213.63.319 1.076.319.41 0 .739-.083.987-.25.248-.165.372-.387.372-.664zm3.967-6.193v1.535h1.183v.838h-1.183v3.931c0 .254.052.445.158.572.105.126.285.19.539.19.125 0 .297-.023.516-.07v.879a3.143 3.143 0 0 1-.832.117c-.485 0-.85-.147-1.096-.44-.246-.293-.37-.709-.37-1.248v-3.931h-1.154v-.838h1.155v-1.535h1.084zm6.363 7.875c-.063-.125-.113-.348-.152-.668-.504.523-1.106.785-1.805.785-.625 0-1.138-.177-1.538-.53-.4-.354-.6-.802-.6-1.345 0-.66.25-1.173.752-1.538.502-.366 1.208-.548 2.118-.548h1.055v-.498c0-.38-.113-.68-.34-.906-.226-.224-.56-.336-1.002-.336-.386 0-.71.097-.972.293-.262.195-.393.431-.393.709h-1.09c0-.317.112-.623.337-.917a2.3 2.3 0 0 1 .914-.7 3.075 3.075 0 0 1 1.269-.258c.73 0 1.302.182 1.716.547.415.366.63.869.645 1.51v2.917c0 .582.074 1.045.223 1.389v.094h-1.137zm-1.799-.827c.34 0 .662-.088.967-.263.305-.176.525-.405.662-.686v-1.3h-.85c-1.328 0-1.992.388-1.992 1.165 0 .34.114.606.34.797.227.192.518.287.873.287zm5.438-5.513l.035.797c.484-.61 1.117-.914 1.898-.914 1.34 0 2.016.755 2.028 2.267v4.19h-1.084v-4.196c-.004-.457-.109-.795-.314-1.013-.205-.22-.524-.329-.958-.329-.351 0-.66.094-.926.282a1.91 1.91 0 0 0-.62.738v4.518h-1.085v-6.34h1.026zm8.138 5.572c.387 0 .725-.117 1.014-.352a1.23 1.23 0 0 0 .48-.878h1.026c-.02.363-.145.708-.375 1.037a2.47 2.47 0 0 1-.923.785 2.663 2.663 0 0 1-1.222.293c-.863 0-1.55-.288-2.06-.865-.509-.576-.764-1.364-.764-2.364v-.181c0-.618.113-1.166.34-1.647.226-.48.552-.853.976-1.119.423-.266.924-.398 1.502-.398.711 0 1.302.212 1.773.638.47.426.722.979.753 1.658h-1.026a1.494 1.494 0 0 0-.465-1.01 1.45 1.45 0 0 0-1.035-.396c-.55 0-.977.198-1.28.595-.303.396-.454.97-.454 1.72v.205c0 .73.15 1.293.451 1.687.301.395.73.592 1.29.592zm6.37.885c-.86 0-1.56-.282-2.098-.847-.54-.564-.809-1.32-.809-2.265v-.199c0-.629.12-1.19.36-1.684.24-.495.577-.881 1.008-1.16.432-.28.9-.42 1.404-.42.824 0 1.465.272 1.922.815.457.543.685 1.32.685 2.332v.451h-4.295c.016.625.198 1.13.548 1.515.35.385.794.577 1.333.577.383 0 .707-.078.973-.234.265-.157.498-.364.697-.621l.662.515c-.531.817-1.328 1.225-2.39 1.225zm-.135-5.684c-.438 0-.805.16-1.102.478-.297.318-.48.764-.55 1.339h3.175v-.082c-.031-.551-.18-.978-.445-1.28-.266-.303-.625-.455-1.078-.455z" fill="#000"/><path d="M499 197v16" stroke="#616161"/><path d="M549 197H449a2 2 0 0 1-2-2v-28a2 2 0 0 1 2-2h100a2 2 0 0 1 2 2v28a2 2 0 0 1-2 2" fill="#81D4FA"/><path d="M483.271 183.19l2.438-7.037h1.23l-3.164 8.532h-.996l-3.158-8.532h1.225l2.425 7.037zm6.76 1.612c-.86 0-1.559-.282-2.098-.847-.539-.564-.809-1.32-.809-2.265v-.199c0-.629.12-1.19.36-1.684a2.809 2.809 0 0 1 1.009-1.16c.431-.28.9-.42 1.403-.42.824 0 1.465.272 1.922.815.457.543.685 1.32.685 2.332v.451h-4.295c.016.625.199 1.13.548 1.515.35.385.794.577 1.333.577.383 0 .707-.078.973-.234.266-.157.498-.364.697-.621l.662.515c-.53.817-1.328 1.225-2.39 1.225zm-.135-5.684c-.438 0-.805.16-1.102.478-.296.318-.48.764-.55 1.339h3.175v-.082c-.03-.551-.18-.978-.445-1.28-.266-.303-.625-.455-1.078-.455zm6.708.2a3.248 3.248 0 0 0-.534-.042c-.71 0-1.193.303-1.447.909v4.5h-1.084v-6.34h1.055l.017.732c.356-.566.86-.85 1.512-.85.211 0 .371.028.48.083v1.007zm4.47 3.685a.8.8 0 0 0-.332-.683c-.22-.162-.605-.301-1.154-.419-.55-.117-.985-.257-1.307-.422-.322-.164-.56-.359-.715-.585a1.402 1.402 0 0 1-.231-.81c0-.519.22-.958.659-1.317.44-.36 1.001-.54 1.685-.54.718 0 1.301.186 1.749.557.447.371.67.846.67 1.424h-1.09c0-.297-.125-.553-.377-.768-.252-.214-.57-.322-.952-.322-.395 0-.704.086-.926.258a.812.812 0 0 0-.334.674c0 .262.103.459.31.592.207.132.581.26 1.122.38.541.122.98.266 1.316.434.336.168.585.37.747.606.162.237.243.525.243.865a1.62 1.62 0 0 1-.68 1.362c-.453.342-1.04.513-1.763.513-.508 0-.957-.09-1.348-.27-.39-.18-.696-.43-.917-.753a1.815 1.815 0 0 1-.331-1.046h1.084c.02.364.165.652.437.865.271.213.63.319 1.075.319.41 0 .739-.083.987-.25.248-.165.372-.387.372-.664zm3.455 1.682h-1.084v-6.34h1.084v6.34zm-1.172-8.022c0-.176.054-.324.161-.445.108-.121.267-.182.478-.182.21 0 .37.06.48.182a.64.64 0 0 1 .164.445.62.62 0 0 1-.164.44c-.11.117-.27.175-.48.175-.211 0-.37-.058-.478-.175a.626.626 0 0 1-.161-.44zm2.401 4.793c0-.621.122-1.18.366-1.676a2.732 2.732 0 0 1 1.02-1.148c.435-.27.932-.404 1.491-.404.863 0 1.562.298 2.095.896.533.598.8 1.393.8 2.385v.076c0 .617-.119 1.17-.355 1.661-.236.49-.574.872-1.014 1.146-.439.273-.944.41-1.514.41-.86 0-1.556-.3-2.09-.897-.532-.597-.799-1.388-.799-2.373v-.076zm1.09.129c0 .703.163 1.268.49 1.693.325.426.762.639 1.309.639.55 0 .988-.216 1.312-.647.324-.432.487-1.037.487-1.814 0-.695-.165-1.259-.496-1.69a1.574 1.574 0 0 0-1.315-.648c-.535 0-.967.213-1.295.639-.328.426-.492 1.035-.492 1.828zm6.848-3.24l.035.797c.485-.61 1.118-.914 1.899-.914 1.34 0 2.016.755 2.027 2.267v4.19h-1.084v-4.196c-.004-.457-.108-.795-.313-1.013-.205-.22-.525-.329-.958-.329-.352 0-.66.094-.926.282a1.91 1.91 0 0 0-.621.738v4.518h-1.084v-6.34h1.025z" fill="#000"/><path d="M677 197H577a2 2 0 0 1-2-2v-28a2 2 0 0 1 2-2h100a2 2 0 0 1 2 2v28a2 2 0 0 1-2 2" fill="#81D4FA"/><path d="M611.271 183.19l2.438-7.037h1.23l-3.164 8.532h-.996l-3.158-8.532h1.225l2.425 7.037zm6.76 1.612c-.86 0-1.559-.282-2.098-.847-.539-.564-.809-1.32-.809-2.265v-.199c0-.629.12-1.19.36-1.684a2.809 2.809 0 0 1 1.009-1.16c.431-.28.9-.42 1.403-.42.824 0 1.465.272 1.922.815.457.543.685 1.32.685 2.332v.451h-4.295c.016.625.199 1.13.548 1.515.35.385.794.577 1.333.577.383 0 .707-.078.973-.234.266-.157.498-.364.697-.621l.662.515c-.53.817-1.328 1.225-2.39 1.225zm-.135-5.684c-.438 0-.805.16-1.102.478-.296.318-.48.764-.55 1.339h3.175v-.082c-.03-.551-.18-.978-.445-1.28-.266-.303-.625-.455-1.078-.455zm6.708.2a3.248 3.248 0 0 0-.534-.042c-.71 0-1.193.303-1.447.909v4.5h-1.084v-6.34h1.055l.017.732c.356-.566.86-.85 1.512-.85.211 0 .371.028.48.083v1.007zm4.47 3.685a.8.8 0 0 0-.332-.683c-.22-.162-.605-.301-1.154-.419-.55-.117-.985-.257-1.307-.422-.322-.164-.56-.359-.715-.585a1.402 1.402 0 0 1-.231-.81c0-.519.22-.958.659-1.317.44-.36 1.001-.54 1.685-.54.718 0 1.301.186 1.749.557.447.371.67.846.67 1.424h-1.09c0-.297-.125-.553-.377-.768-.252-.214-.57-.322-.952-.322-.395 0-.704.086-.926.258a.812.812 0 0 0-.334.674c0 .262.103.459.31.592.207.132.581.26 1.122.38.541.122.98.266 1.316.434.336.168.585.37.747.606.162.237.243.525.243.865a1.62 1.62 0 0 1-.68 1.362c-.453.342-1.04.513-1.763.513-.508 0-.957-.09-1.348-.27-.39-.18-.696-.43-.917-.753a1.815 1.815 0 0 1-.331-1.046h1.084c.02.364.165.652.437.865.271.213.63.319 1.075.319.41 0 .739-.083.987-.25.248-.165.372-.387.372-.664zm3.455 1.682h-1.084v-6.34h1.084v6.34zm-1.172-8.022c0-.176.054-.324.161-.445.108-.121.267-.182.478-.182.21 0 .37.06.48.182a.64.64 0 0 1 .164.445.62.62 0 0 1-.164.44c-.11.117-.27.175-.48.175-.211 0-.37-.058-.478-.175a.626.626 0 0 1-.161-.44zm2.401 4.793c0-.621.122-1.18.366-1.676a2.732 2.732 0 0 1 1.02-1.148c.435-.27.932-.404 1.491-.404.863 0 1.562.298 2.095.896.533.598.8 1.393.8 2.385v.076c0 .617-.119 1.17-.355 1.661-.236.49-.574.872-1.014 1.146-.439.273-.944.41-1.514.41-.86 0-1.556-.3-2.09-.897-.532-.597-.799-1.388-.799-2.373v-.076zm1.09.129c0 .703.163 1.268.49 1.693.325.426.762.639 1.309.639.55 0 .988-.216 1.312-.647.324-.432.487-1.037.487-1.814 0-.695-.165-1.259-.496-1.69a1.574 1.574 0 0 0-1.315-.648c-.535 0-.967.213-1.295.639-.328.426-.492 1.035-.492 1.828zm6.848-3.24l.035.797c.485-.61 1.118-.914 1.899-.914 1.34 0 2.016.755 2.027 2.267v4.19h-1.084v-4.196c-.004-.457-.108-.795-.313-1.013-.205-.22-.525-.329-.958-.329-.352 0-.66.094-.926.282a1.91 1.91 0 0 0-.621.738v4.518h-1.084v-6.34h1.025z" fill="#000"/><path stroke="#616161" d="M564 94.132V79H232v15.132"/><path fill="#616161" d="M567.272 91.482l-.586-.546-2.685 2.89-2.686-2.89-.586.546L564 95zm-338.544 0l.586-.546 2.685 2.89 2.686-2.89.586.546L232 95z"/><g transform="translate(331 31)"><use stroke="#E0E0E0" mask="url(#d)" stroke-width="2" fill="#03A9F4" xlink:href="#a"/><path d="M39.803 18.014h-3.305L35.807 20h-1.541l3.222-8.531h1.33L42.047 20H40.5l-.697-1.986zm-2.889-1.196h2.473L38.15 13.28l-1.236 3.54zm11.232.077c0 .98-.222 1.762-.667 2.346-.446.584-1.043.876-1.793.876-.696 0-1.252-.228-1.67-.685v3.006h-1.424V13.66h1.312l.059.645c.418-.508.986-.762 1.705-.762.773 0 1.38.288 1.82.864.439.576.658 1.376.658 2.4v.088zm-1.417-.124c0-.632-.126-1.134-.378-1.505s-.613-.557-1.081-.557c-.583 0-1 .24-1.254.72v2.813c.257.492.68.738 1.265.738.453 0 .808-.182 1.064-.547.256-.366.384-.92.384-1.662zm8.173.124c0 .98-.222 1.762-.668 2.346-.445.584-1.043.876-1.793.876-.695 0-1.252-.228-1.67-.685v3.006h-1.423V13.66h1.312l.059.645c.418-.508.986-.762 1.705-.762.773 0 1.38.288 1.82.864.439.576.658 1.376.658 2.4v.088zm-1.418-.124c0-.632-.126-1.134-.378-1.505s-.612-.557-1.08-.557c-.583 0-1 .24-1.255.72v2.813c.258.492.68.738 1.266.738.453 0 .808-.182 1.064-.547.255-.366.383-.92.383-1.662zM57.621 20h-1.424v-9h1.424v9zm3.065 0h-1.424v-6.34h1.424V20zm-1.512-7.986c0-.22.07-.4.208-.545.139-.145.337-.217.595-.217.257 0 .457.072.597.217a.75.75 0 0 1 .211.545c0 .215-.07.393-.21.536-.141.142-.34.214-.598.214-.258 0-.456-.072-.595-.214a.738.738 0 0 1-.208-.536zm5.666 6.966c.355 0 .65-.103.885-.31a1.06 1.06 0 0 0 .375-.768h1.341a2.091 2.091 0 0 1-.369 1.105c-.23.342-.543.612-.937.811-.395.2-.82.3-1.278.3-.886 0-1.59-.288-2.109-.862-.52-.574-.78-1.367-.78-2.379v-.147c0-.964.259-1.737.774-2.317.516-.58 1.219-.87 2.11-.87.753 0 1.368.22 1.842.66.475.439.724 1.016.747 1.73H66.1c-.016-.363-.14-.662-.372-.896-.233-.234-.529-.351-.888-.351-.461 0-.817.167-1.067.5-.25.335-.377.841-.38 1.521v.229c0 .687.124 1.2.372 1.538.248.338.606.506 1.075.506zM72.305 20c-.063-.121-.117-.318-.164-.592a2.216 2.216 0 0 1-1.664.71c-.637 0-1.157-.182-1.559-.546a1.743 1.743 0 0 1-.604-1.347c0-.676.251-1.195.753-1.556s1.22-.542 2.154-.542h.873v-.416c0-.328-.092-.59-.276-.788-.183-.197-.463-.296-.838-.296-.324 0-.59.081-.796.243a.753.753 0 0 0-.311.618h-1.424c0-.347.115-.673.346-.975a2.3 2.3 0 0 1 .94-.712 3.303 3.303 0 0 1 1.328-.258c.742 0 1.333.186 1.775.56.441.373.668.897.68 1.573v2.86c0 .57.08 1.025.24 1.364v.1h-1.453zm-1.565-1.025c.281 0 .546-.069.794-.205a1.37 1.37 0 0 0 .56-.551v-1.196h-.768c-.527 0-.924.092-1.19.276a.892.892 0 0 0-.398.78c0 .273.091.49.273.652.181.163.425.244.73.244zm6.053-6.856v1.541h1.12v1.055h-1.12v3.539c0 .242.048.417.144.524.095.108.266.161.512.161.164 0 .33-.02.498-.058v1.101c-.324.09-.636.135-.937.135-1.094 0-1.64-.603-1.64-1.81v-3.592h-1.044V13.66h1.043v-1.54h1.424zM80.513 20H79.09v-6.34h1.424V20zm-1.511-7.986c0-.22.07-.4.208-.545.139-.145.337-.217.595-.217.258 0 .457.072.597.217a.75.75 0 0 1 .211.545c0 .215-.07.393-.21.536-.141.142-.34.214-.598.214-.258 0-.456-.072-.595-.214a.738.738 0 0 1-.208-.536zm2.795 4.757c0-.62.123-1.18.369-1.678s.592-.881 1.037-1.149c.445-.267.957-.401 1.535-.401.856 0 1.55.275 2.083.826.533.55.822 1.281.865 2.192l.005.334c0 .625-.12 1.183-.36 1.675-.24.493-.584.873-1.031 1.143-.447.27-.964.404-1.55.404-.895 0-1.61-.298-2.147-.893-.538-.596-.806-1.39-.806-2.382v-.07zm1.424.124c0 .652.134 1.163.404 1.532s.645.553 1.125.553.854-.187 1.122-.562c.268-.375.401-.924.401-1.647 0-.64-.137-1.148-.413-1.523a1.319 1.319 0 0 0-1.122-.562c-.465 0-.834.184-1.107.553-.274.37-.41.921-.41 1.656zm6.996-3.235l.04.733c.47-.567 1.085-.85 1.847-.85 1.32 0 1.992.756 2.015 2.268V20h-1.424v-4.107c0-.403-.087-.7-.26-.894-.174-.193-.458-.29-.853-.29-.574 0-1.002.26-1.283.78V20h-1.424v-6.34h1.342z" fill="#FFF"/></g></g></svg>